<svg width="272" height="35" xmlns="http://www.w3.org/2000/svg"><path d="M272 35H111V0h161z" fill="#c1282d"/><path d="M111 35H0V0h111z" fill="#ef4041"/><path d="M98.045 21.777h-1.477v-3.791h-3.814v3.791H91.27v-8.531h1.483v3.55h3.814v-3.55h1.477zm-10.528-7.336h-2.66v7.336h-1.47v-7.336h-2.638v-1.195h6.768zm-10.464 7.336h-1.477v-8.531h1.477zm-8.073-2.11l1.312-6.421h1.47l-1.968 8.53h-1.418l-1.623-6.228-1.658 6.229H63.67l-1.969-8.531h1.47l1.325 6.41 1.629-6.41h1.242zm-16.762-1.699h-3.504v2.625h4.095v1.184h-5.578v-8.531h5.537v1.195h-4.054v2.356h3.504zM36.75 21.777v-8.531h2.52q1.13 0 2.003.504.879.504 1.36 1.43.48.925.48 2.12v.428q0 1.213-.486 2.133-.48.92-1.377 1.418-.891.498-2.045.498zm1.482-7.336v6.152h.967q1.166 0 1.787-.726.627-.733.639-2.098v-.474q0-1.39-.604-2.122-.603-.732-1.752-.732zm-7.33 5.35h-3.304l-.691 1.986h-1.541l3.222-8.531h1.33l3.229 8.531H31.6zm-2.888-1.196h2.473l-1.236-3.539zm-13.212-5.35l2.461 6.54 2.455-6.54h1.916v8.532h-1.477v-2.813l.147-3.761-2.52 6.574h-1.06l-2.514-6.568.147 3.756v2.812H12.88v-8.531zm217.16-3.443a1.8 1.8 0 00-1.804 1.804v11.788a1.8 1.8 0 001.804 1.804h21.411a1.8 1.8 0 001.804-1.804V11.606a1.8 1.8 0 00-1.804-1.804zm-.018 1.22h21.411a.6.6 0 01.602.602v11.788a.6.6 0 01-.602.601h-21.41a.6.6 0 01-.602-.601V11.624a.6.6 0 01.601-.602zm1.805 10.585v-8.18h2.405l2.406 3.008 2.406-3.007h2.405v8.18h-2.405v-4.692l-2.406 3.007-2.406-3.007v4.691zm15.036 0l-3.609-3.97h2.406v-4.21h2.405v4.21h2.406zm-25.367-8.302v8.4h-1.956l-3.708-4.476v4.476h-2.328v-8.4h1.956l3.708 4.476v-4.476zm-11.512 0l-2.724 8.4h-2.544l-1.608-5.112-1.68 5.112h-2.544l-2.724-8.4h2.448l1.692 5.364 1.776-5.364h2.184l1.692 5.412 1.764-5.412zm-21.487 8.568q-1.332 0-2.4-.564-1.056-.564-1.668-1.56-.6-.996-.6-2.244t.6-2.244q.612-.996 1.668-1.56 1.068-.564 2.4-.564t2.388.564q1.068.564 1.668 1.56.612.996.612 2.244t-.612 2.244q-.6.996-1.668 1.56-1.056.564-2.388.564zm0-1.968q.636 0 1.152-.3t.816-.84q.3-.552.3-1.26t-.3-1.248q-.3-.552-.816-.852t-1.152-.3-1.152.3-.816.852q-.3.54-.3 1.248t.3 1.26q.3.54.816.84t1.152.3zm-16.83-6.6h3.972q1.38 0 2.448.516t1.656 1.464.588 2.22-.588 2.22-1.656 1.464-2.448.516h-3.972zm3.876 6.504q1.08 0 1.728-.612.66-.612.66-1.692t-.66-1.692q-.648-.612-1.728-.612h-1.5v4.608zm-12.34-1.152l-.887.948v2.1h-2.352v-8.4h2.352v3.492l3.252-3.492h2.616l-3.432 3.72 3.612 4.68h-2.76zm-11.13.816h-1.296v2.232h-2.376v-8.4h3.84q1.14 0 1.98.384.84.372 1.296 1.08.456.696.456 1.644 0 .912-.432 1.596-.42.672-1.212 1.056l1.812 2.64h-2.544zm1.5-3.06q0-.588-.372-.912t-1.104-.324h-1.32v2.46h1.32q.732 0 1.104-.312.372-.324.372-.912zm-11.646 3.66h-3.552l-.66 1.632h-2.424l3.708-8.4h2.34l3.72 8.4h-2.472zm-.696-1.752l-1.08-2.688-1.08 2.688zm-11.466 3.384l-.024-4.452-2.16 3.624h-1.056l-2.148-3.504v4.332h-2.196v-8.4h1.956l2.952 4.848 2.88-4.848h1.956l.024 8.4z" fill="#fff" aria-label="MADE WITH"/></svg>